<svg version="1.1" id="Layer_1" xmlns="http://www.w3.org/2000/svg" xmlns:xlink="http://www.w3.org/1999/xlink" x="0px" y="0px"
	 width="100%" viewBox="0 0 1024 1024" enable-background="new 0 0 1024 1024" xml:space="preserve">
<path fill="#FFFFFF" opacity="1.000000" stroke="none" 
	d="
M678.000000,1025.000000 
	C453.500000,1025.000000 229.500000,1024.989136 5.500043,1025.093506 
	C1.750792,1025.095215 0.905801,1024.249146 0.906913,1020.500000 
	C1.007246,682.166687 1.007246,343.833344 0.906913,5.500028 
	C0.905801,1.750903 1.750902,0.905800 5.500028,0.906912 
	C343.833344,1.007255 682.166687,1.007255 1020.500000,0.906912 
	C1024.249146,0.905800 1025.094360,1.750902 1025.093262,5.500027 
	C1024.992920,343.833344 1024.992798,682.166687 1025.093140,1020.500000 
	C1025.094238,1024.249146 1024.249512,1025.098389 1020.499878,1025.094604 
	C906.500000,1024.978760 792.500000,1025.000000 678.000000,1025.000000 
z"/>
<path fill="#FF01FF" opacity="1.000000" stroke="none" 
	d="
M453.611298,226.175308 
	C454.101532,223.147278 454.409943,220.453018 454.813843,217.372742 
	C454.985352,216.388992 455.156342,215.821884 455.525574,215.006256 
	C455.669983,214.326630 455.743896,213.936798 455.907684,213.263214 
	C456.024170,212.393829 456.199493,211.860382 456.735168,211.168091 
	C465.448853,185.036636 483.049866,168.626587 509.292358,161.691605 
	C537.631958,154.202423 561.847656,162.430008 582.351807,182.435074 
	C588.401184,188.337204 593.071533,195.600174 597.078918,203.114609 
	C598.872559,206.477859 600.407532,206.909286 603.821167,204.810104 
	C637.261230,184.246506 670.853088,163.930008 704.339050,143.440720 
	C725.255005,130.642715 747.706482,123.085854 772.413635,124.065659 
	C811.597534,125.619583 843.631470,141.789108 866.260254,173.914169 
	C896.093750,216.267609 896.266357,266.843628 867.755371,310.123077 
	C857.900452,325.082764 844.611877,336.637634 829.313354,345.923798 
	C795.618103,366.376770 762.003601,386.963409 728.224243,407.276154 
	C724.061890,409.779114 723.634033,411.661591 726.272400,415.590576 
	C735.636292,429.535339 741.489563,444.753357 741.492371,461.803375 
	C741.494263,473.469238 738.789856,484.594910 733.508545,494.946503 
	C731.040161,499.784576 728.715759,504.860779 724.303589,508.850159 
	C721.749451,509.595459 720.686035,507.798584 719.456970,506.580292 
	C700.664368,487.952637 682.350952,468.860199 664.289978,449.524323 
	C663.835266,449.037506 663.385010,448.545837 662.904663,448.084595 
	C646.089844,431.938721 630.370178,414.718323 614.091736,398.048645 
	C594.913147,378.409058 575.889832,358.610413 556.835388,338.846558 
	C538.589661,319.921570 520.327515,301.012726 502.082642,282.087555 
	C486.266846,265.681946 470.509705,249.218811 454.411346,232.594833 
	C454.027557,231.568863 453.925964,230.833527 453.504822,229.800232 
	C453.005219,228.463181 453.003632,227.481308 453.611298,226.175308 
z"/>
<path fill="#3AC6FF" opacity="1.000000" stroke="none" 
	d="
M179.332031,928.634644 
	C143.294388,922.427490 115.972336,895.845215 107.666748,860.766785 
	C99.806366,827.568665 107.017075,797.314941 124.056366,768.924744 
	C140.906235,740.850220 162.499207,716.695068 187.655518,695.740295 
	C193.509415,690.864075 198.049713,690.799316 203.687851,695.555603 
	C229.424576,717.266479 252.271194,741.612854 270.239746,770.197388 
	C283.479156,791.258789 292.369446,813.763184 290.831512,839.350647 
	C288.107544,884.670959 258.548981,921.177979 212.027817,928.714783 
	C201.248962,930.461060 190.513092,930.555298 179.332031,928.634644 
z"/>
<path fill="#3AC6FF" opacity="1.000000" stroke="none" 
	d="
M148.726837,533.212646 
	C151.258469,529.831055 153.575729,526.701904 156.139801,523.327332 
	C156.960709,522.096802 157.740158,521.275269 158.691544,520.158020 
	C160.544510,517.772827 162.201263,515.664001 164.095612,513.312622 
	C164.948578,512.107788 165.730835,511.282806 166.697128,510.168884 
	C167.517822,509.088135 168.136353,508.281464 168.961914,507.249634 
	C169.610001,506.497284 170.043869,505.964142 170.686737,505.159180 
	C172.853439,502.433472 174.821045,499.987823 177.027100,497.300507 
	C178.249725,495.775055 179.278351,494.537964 181.059631,493.610596 
	C183.952011,492.580078 185.503021,494.302979 186.968903,495.840424 
	C201.316864,510.888641 216.153458,525.468140 230.154709,540.848450 
	C230.715240,541.464172 231.262329,542.093201 231.862656,542.669373 
	C248.557556,558.695496 264.262756,575.701782 280.262787,592.394226 
	C293.265320,605.959473 307.066467,618.777100 319.265991,633.111450 
	C320.425598,634.474060 322.040985,635.639832 321.320465,638.155762 
	C320.394562,639.025085 319.594238,639.559448 318.504395,640.137024 
	C313.486542,642.502136 308.415436,643.969788 303.241852,646.139038 
	C302.452087,646.364136 302.010468,646.499878 301.219971,646.624512 
	C299.416687,646.909058 298.152557,647.794006 296.343414,647.995483 
	C295.639252,648.090271 295.252197,648.162720 294.569275,648.239014 
	C293.379059,648.690369 292.440552,649.011414 291.184814,649.329834 
	C290.469574,649.552673 290.033386,649.668823 289.257080,649.774780 
	C287.775330,649.924744 286.710052,650.309387 285.364624,650.925659 
	C284.365540,651.099121 283.702515,651.205200 282.703217,651.321411 
	C281.683014,651.423889 281.149109,651.872864 280.209229,652.221191 
	C279.464203,652.480896 279.034607,652.626038 278.262024,652.770996 
	C276.393188,652.847839 275.129669,653.820007 273.324646,654.074707 
	C272.639282,654.189453 272.270416,654.254028 271.620239,654.310913 
	C267.172760,655.534302 262.852142,656.070496 258.272522,657.214294 
	C257.151428,657.448914 256.404572,657.594482 255.274582,657.716675 
	C253.094009,657.855469 251.424438,658.534424 249.360535,659.007690 
	C248.351791,659.120361 247.679214,659.203613 246.667435,659.291382 
	C245.393417,659.637878 244.477554,660.043091 243.184967,660.234558 
	C242.154312,660.476013 241.411621,660.635254 240.287018,660.762146 
	C237.779648,660.909546 235.691895,661.278687 233.347443,661.990784 
	C232.042343,662.108276 231.058365,662.206482 229.703156,662.300659 
	C227.849915,663.150085 226.131943,662.833374 224.241638,663.395813 
	C223.479507,663.628296 223.039291,663.723206 222.260056,663.807251 
	C218.563782,664.165100 215.198914,663.968384 211.450775,663.884399 
	C210.616562,663.787170 210.167786,663.737854 209.410126,663.546631 
	C208.474869,663.151306 207.862045,662.870911 206.969711,662.411011 
	C204.585526,662.387329 203.177017,661.025818 201.350586,659.780579 
	C200.088028,659.026489 199.273300,658.266785 198.214996,657.276733 
	C197.961029,657.059753 197.989609,657.013123 197.965195,657.025391 
	C197.499878,656.513916 197.029877,656.015991 196.352295,655.244873 
	C193.351089,652.472473 191.853302,649.077209 189.821259,645.650879 
	C189.563095,644.534485 188.968964,644.027100 188.339447,643.205688 
	C187.738632,642.292908 187.309738,641.606812 186.795654,640.628845 
	C185.934143,638.570312 184.437546,637.253906 183.505127,635.206909 
	C182.872955,634.241699 182.409729,633.548645 181.866852,632.552002 
	C180.962112,630.538147 179.892929,628.981689 178.619629,627.181763 
	C177.625153,625.585266 176.780991,624.266174 175.837723,622.625427 
	C175.406876,621.180786 174.366928,620.524414 173.746674,619.190186 
	C173.366608,618.561951 173.129257,618.241089 172.791367,617.637024 
	C171.954849,615.561096 170.430679,614.257019 169.497711,612.208618 
	C168.864731,611.244812 168.402954,610.552490 167.858490,609.558716 
	C167.513306,608.606262 167.060074,608.077209 166.456055,607.234497 
	C165.811157,606.262024 165.371475,605.568542 164.843506,604.579651 
	C164.547699,603.531189 163.975662,603.019287 163.361496,602.198120 
	C163.196991,601.969849 162.964096,601.587708 162.912567,601.369995 
	C160.382767,597.325745 158.098785,593.379456 155.498657,589.226318 
	C155.311279,588.940002 155.057022,588.527893 154.992676,588.294495 
	C152.291763,584.362183 150.106918,580.382141 147.575348,576.217102 
	C147.320694,575.770081 147.233246,575.619690 147.064941,575.221191 
	C145.973587,573.988220 145.418198,572.703796 144.529114,571.225281 
	C144.346649,570.931641 144.090958,570.507629 144.017227,570.271301 
	C142.368835,567.306274 140.830795,564.559937 139.759949,561.216797 
	C139.500702,559.513123 139.348495,558.130798 139.236435,556.328918 
	C139.076355,555.162781 139.011963,554.407227 139.183685,553.358887 
	C139.276993,552.322327 139.314835,551.566711 139.479294,550.452759 
	C140.166199,548.917969 139.797974,547.515076 140.670166,546.095703 
	C141.295258,544.773499 141.762833,543.732056 142.411819,542.396729 
	C142.833755,541.504761 143.119385,540.931580 143.714386,540.165710 
	C144.387405,538.104858 145.801010,536.948425 147.124603,535.323486 
	C147.697968,534.508911 148.074768,533.964722 148.726837,533.212646 
z"/>
<path fill="#FF2CFF" opacity="1.000000" stroke="none" 
	d="
M470.377930,284.202942 
	C470.194672,283.953247 469.962891,283.581421 469.909180,283.369019 
	C465.712891,276.902405 462.232788,270.281799 458.893433,263.189484 
	C458.473083,262.244019 458.156860,261.634796 457.748047,260.693665 
	C457.138580,258.806366 456.656067,257.239105 456.004028,255.365204 
	C455.851318,254.360062 455.743164,253.704819 455.623352,252.717255 
	C455.464020,251.918274 455.373413,251.441223 455.454590,250.604004 
	C458.116852,248.246185 459.534332,250.521851 460.972870,251.880234 
	C466.419800,257.023743 471.169586,262.870026 476.473785,268.116821 
	C492.926910,284.391937 508.685944,301.336029 524.848145,317.886963 
	C544.027283,337.527344 563.050659,357.327118 582.106140,377.091125 
	C600.352966,396.016388 618.612122,414.929291 636.868286,433.845276 
	C655.934082,453.600128 674.940613,473.410950 694.073364,493.102234 
	C699.745300,498.939758 705.252136,504.962769 710.943176,510.800049 
	C712.828491,512.733765 714.876953,514.370056 717.594971,515.723389 
	C713.464417,520.500549 708.480042,524.206970 702.501160,527.070251 
	C699.363037,527.855652 697.783813,525.871582 696.177185,524.286377 
	C677.805664,506.160065 660.001831,487.483185 642.381409,468.629822 
	C641.926331,468.142914 641.481812,467.645172 641.001404,467.183807 
	C624.180481,451.027252 608.450867,433.800140 592.163574,417.122589 
	C572.974243,397.473572 553.908325,377.695068 534.885986,357.882080 
	C516.323792,338.548370 497.771088,319.207581 478.811707,299.778351 
	C477.679382,297.939362 477.668823,296.025024 476.498169,294.204285 
	C475.890961,293.218140 475.456268,292.518250 474.897461,291.534424 
	C474.503387,290.601746 474.053528,290.067780 473.453033,289.218689 
	C473.249786,288.937164 473.021271,288.540558 472.961670,288.319580 
	C471.999939,286.961517 471.406952,285.625946 470.377930,284.202942 
z"/>
<path fill="#FD3DFF" opacity="1.000000" stroke="none" 
	d="
M478.590729,298.757874 
	C488.139099,307.342072 497.054535,316.033661 505.241821,325.449707 
	C505.895416,326.201385 506.514984,326.986511 507.210266,327.697510 
	C522.560547,343.395447 538.070312,358.941010 553.226318,374.824158 
	C564.363037,386.495117 575.937805,397.755310 586.847717,409.612671 
	C595.756042,419.294647 605.364868,428.248627 614.322876,437.849823 
	C632.810364,457.664642 651.923584,476.875153 670.663147,496.441284 
	C679.172119,505.325470 687.920105,513.972473 696.385864,522.894165 
	C697.886719,524.475891 699.468567,525.928589 701.826782,526.942688 
	C697.349731,530.360596 692.334290,533.080627 685.968018,533.373657 
	C683.125671,533.965271 681.872437,532.102722 680.593445,530.704590 
	C660.385498,508.614441 638.697876,487.940094 618.538940,465.804749 
	C618.090515,465.312408 617.648071,464.813507 617.167542,464.353180 
	C600.701233,448.578308 585.355591,431.705292 569.426514,415.405457 
	C549.782898,395.304749 530.228516,375.105713 510.830872,354.768768 
	C495.911652,339.127106 480.455322,323.995392 465.818542,307.595337 
	C465.490631,306.803864 465.476013,306.323456 465.818542,305.562561 
	C466.754883,304.841675 467.448090,304.396301 468.442993,303.880066 
	C469.461060,303.537384 469.983643,302.987518 470.802277,302.372070 
	C471.723297,301.803467 472.415802,301.397247 473.383118,300.865417 
	C475.284912,300.187592 476.269196,298.282715 478.590729,298.757874 
z"/>
<path fill="#F948FF" opacity="1.000000" stroke="none" 
	d="
M465.629211,306.764709 
	C472.142273,312.037384 477.141876,318.263580 482.650452,324.006592 
	C499.697083,341.778870 517.280884,359.037415 534.261230,376.871399 
	C552.952759,396.502747 571.899902,415.881622 590.719421,435.385651 
	C609.192322,454.530334 627.857117,473.502502 646.051025,492.898590 
	C656.848572,504.409607 668.843689,514.778320 678.736389,527.150940 
	C680.482788,529.335144 682.812378,531.052979 685.223450,533.162354 
	C679.472900,537.217468 672.519043,536.085266 665.447754,536.565918 
	C661.457642,531.175903 656.774780,526.916077 652.295166,522.480164 
	C638.216309,508.538574 624.712158,494.035858 610.897156,479.839050 
	C592.443298,460.875092 574.099609,441.798615 555.733154,422.747284 
	C536.787842,403.095490 517.715820,383.563599 498.868286,363.822723 
	C483.585297,347.815369 467.911926,332.178650 452.781219,315.539429 
	C452.464783,314.746704 452.456726,314.267639 452.799774,313.507721 
	C454.758087,312.212036 456.477478,311.193787 458.486603,310.015381 
	C461.039032,308.910583 462.620087,306.616760 465.629211,306.764709 
z"/>
<path fill="#FF18FF" opacity="1.000000" stroke="none" 
	d="
M718.121704,515.784180 
	C715.489807,516.322449 713.764771,515.364746 712.125671,513.676636 
	C697.983276,499.111389 683.519104,484.847321 669.717224,469.968109 
	C664.174072,463.992279 658.468018,458.191498 652.808411,452.340363 
	C639.967957,439.065338 626.861084,426.043640 614.191772,412.608521 
	C595.932556,393.245544 577.262085,374.285645 558.793274,355.129120 
	C539.861450,335.492310 520.757996,316.015381 501.993042,296.227631 
	C488.380127,281.872833 473.948212,268.306702 460.879944,253.432922 
	C459.704529,252.095123 458.611084,250.500702 456.310425,250.045410 
	C455.701416,250.352173 455.373108,250.461838 454.859192,250.040863 
	C454.597351,249.372040 454.444489,248.975449 454.272217,248.258499 
	C452.488922,243.447800 452.987610,238.774719 453.252869,233.733032 
	C453.479492,232.778748 453.743530,232.306686 454.572937,231.956024 
	C462.229492,238.126480 468.299011,245.401123 474.843964,252.223068 
	C491.314423,269.390503 508.304871,286.060974 524.693604,303.304413 
	C543.136292,322.709045 561.856873,341.839325 580.439270,361.105133 
	C599.137695,380.491241 617.879456,399.835388 636.564514,419.233002 
	C655.481567,438.871521 674.492920,458.419800 693.351135,478.110382 
	C703.245605,488.441559 713.288757,498.605499 723.707397,508.853149 
	C722.135803,511.198975 720.266907,513.395020 718.121704,515.784180 
z"/>
<path fill="#F357FF" opacity="1.000000" stroke="none" 
	d="
M656.195251,535.480713 
	C640.191956,534.328613 627.041931,527.203003 615.433960,516.794434 
	C604.749695,507.213959 598.333313,494.564392 590.913879,482.637482 
	C590.038696,481.230652 589.175171,479.816498 588.186035,478.075989 
	C586.806763,476.633972 585.563477,477.502014 583.970581,477.807495 
	C581.402527,477.748291 580.069275,476.180176 578.639832,474.800751 
	C561.739014,458.492310 545.867249,441.174255 529.466797,424.377075 
	C513.657776,408.185577 498.057190,391.778290 482.331024,375.498383 
	C480.470337,373.572144 478.524048,371.769257 475.859985,370.285217 
	C475.077789,369.199646 474.977783,368.273376 475.062866,366.984741 
	C475.231628,365.487823 476.075134,364.300140 474.750305,362.992554 
	C473.762482,362.391754 472.945618,362.218781 471.769104,362.058105 
	C470.085785,361.734924 468.951843,361.050232 467.999268,360.109741 
	C457.645569,349.886780 447.120880,339.827850 437.670502,328.732788 
	C436.572174,327.443390 435.679474,326.040558 436.692566,323.893616 
	C438.582092,322.397675 440.331635,321.239929 442.367950,319.946899 
	C443.424530,319.574402 443.957764,318.994781 444.774597,318.315765 
	C444.998260,318.129669 445.415649,317.921692 445.648499,317.909363 
	C449.445648,318.912201 450.566956,322.452942 452.851624,324.770203 
	C462.197021,334.248810 471.500916,343.778198 480.791138,353.304260 
	C496.362823,369.271179 511.763641,385.409363 527.356445,401.357147 
	C547.481934,421.940704 567.416260,442.716217 587.417603,463.423248 
	C604.873474,481.494934 622.103638,499.785797 639.803833,517.622681 
	C645.478577,523.341187 650.309021,529.855896 656.195251,535.480713 
z"/>
<path fill="#4AC3FF" opacity="1.000000" stroke="none" 
	d="
M321.564789,638.441528 
	C319.001892,632.469910 313.724915,628.810242 309.641602,624.443665 
	C294.081146,607.803955 277.753571,591.884949 261.998199,575.423340 
	C242.111710,554.645508 222.143265,533.950928 202.080841,513.343201 
	C196.765808,507.883698 191.561310,502.270935 186.254471,496.777985 
	C185.009094,495.488983 183.905487,493.868652 181.389633,494.010315 
	C180.871628,493.827942 180.717239,493.647034 180.705475,493.139191 
	C184.064041,489.321350 187.279984,485.830475 190.794250,482.187378 
	C194.143967,480.055847 195.651718,482.699127 197.388367,484.259003 
	C205.326736,491.389435 211.824448,499.904633 219.475311,507.322815 
	C234.411758,521.804993 248.593094,537.044495 262.912811,552.111755 
	C273.566650,563.321838 285.160278,573.644897 295.021576,585.608398 
	C296.131897,586.955444 297.651276,587.605042 299.580322,588.240723 
	C301.322021,589.299988 302.978790,589.027100 304.865967,589.401550 
	C314.087463,597.447388 322.415710,605.947388 330.458557,614.715027 
	C332.689697,617.147278 334.915649,619.589111 337.162445,622.011169 
	C338.596863,623.557434 340.412872,625.010193 339.283691,627.876221 
	C338.319122,628.759583 337.549835,629.337769 336.508911,630.034363 
	C335.219879,630.628113 334.543365,631.586731 333.219696,632.191528 
	C332.566071,632.542725 332.220184,632.766479 331.580872,633.089600 
	C330.206696,633.601929 329.536530,634.602478 328.224121,635.268677 
	C325.925507,636.410461 323.930115,637.401428 321.564789,638.441528 
z"/>
<path fill="#F650FF" opacity="1.000000" stroke="none" 
	d="
M656.387695,535.902832 
	C643.706238,523.392090 631.030396,511.362122 619.253052,498.508759 
	C610.479919,488.934143 600.999451,480.095337 592.153320,470.624786 
	C573.434753,450.585022 554.072998,431.166077 535.129700,411.349762 
	C526.401367,402.219177 517.340820,393.418274 508.717896,384.194458 
	C489.763824,363.919586 470.469696,343.976013 450.875244,324.320099 
	C449.132599,322.571960 447.760406,320.454498 446.048737,318.202820 
	C445.881317,317.897064 445.866577,317.902710 445.872253,317.889587 
	C446.439362,317.520050 446.938690,317.078552 447.758301,316.512878 
	C448.729919,315.867371 449.429169,315.411835 450.435486,314.891296 
	C451.223450,314.544189 451.738831,314.449524 452.624817,314.765137 
	C458.832397,320.128418 464.537933,325.430634 469.358643,331.610474 
	C470.071442,332.524231 470.888397,333.362000 471.701385,334.191559 
	C488.572388,351.406647 505.657837,368.417450 522.270630,385.878021 
	C540.936462,405.496460 559.869751,424.850769 578.669739,444.335815 
	C597.238953,463.581696 615.850769,482.788849 634.337952,502.109741 
	C643.413086,511.594177 652.728516,520.835266 661.821167,530.296631 
	C663.351013,531.888611 664.664429,533.543884 665.013184,536.119629 
	C662.222351,537.516724 659.519104,536.401611 656.387695,535.902832 
z"/>
<path fill="#63BEFF" opacity="1.000000" stroke="none" 
	d="
M202.784698,470.184143 
	C206.168182,465.213440 211.170914,462.642029 215.753021,459.120789 
	C218.662674,458.280701 220.168396,460.071747 221.667618,461.549561 
	C239.684326,479.308502 257.049469,497.697845 274.412079,516.091003 
	C282.634827,524.801819 291.354340,533.026001 299.906433,541.924438 
	C300.291931,550.168274 302.102112,557.964966 301.141418,566.282776 
	C299.254150,570.162537 296.970367,568.773621 295.023376,567.032104 
	C291.053467,563.481079 287.135681,559.815796 283.749695,555.719604 
	C279.915222,551.080933 275.696411,546.845459 271.428955,542.645264 
	C256.955536,528.399902 243.243546,513.414429 229.023056,498.921112 
	C221.225388,490.973877 213.478882,482.945679 205.744141,474.920502 
	C204.489380,473.618652 202.955917,472.489807 202.784698,470.184143 
z"/>
<path fill="#74BBFF" opacity="1.000000" stroke="none" 
	d="
M299.326141,540.666809 
	C298.261047,540.722290 297.278656,540.660278 296.771912,540.137329 
	C288.355988,531.452148 279.082489,523.598450 271.483154,514.121155 
	C271.172272,513.733459 270.841309,513.359070 270.493469,513.004150 
	C253.780060,495.950714 237.074295,478.889740 220.322220,461.874359 
	C219.301147,460.837219 217.910904,460.163513 216.390991,459.188965 
	C222.245605,453.829193 229.462097,450.252625 236.642090,446.011658 
	C256.498016,466.173370 276.250793,486.172791 295.359619,506.788910 
	C296.628998,508.158386 298.441254,508.779388 299.747864,510.607056 
	C300.742950,514.482422 300.435364,518.037659 300.129364,522.000183 
	C299.466156,524.266663 299.179474,526.131836 300.032043,528.440369 
	C300.464355,532.705994 301.047882,536.564270 299.326141,540.666809 
z"/>
<path fill="#55C1FF" opacity="1.000000" stroke="none" 
	d="
M202.613937,469.961487 
	C203.527298,470.640442 204.046143,471.505157 204.731369,472.207520 
	C219.235367,487.075165 233.819916,501.864777 248.260406,516.793701 
	C263.610931,532.663452 278.815399,548.674438 294.126801,564.582153 
	C295.464294,565.971741 296.538239,567.868347 299.169861,568.001587 
	C300.336151,568.344666 300.947266,568.974304 301.035675,569.823547 
	C301.685303,576.063293 302.587402,582.320251 299.975739,588.739319 
	C297.125549,589.359558 295.221069,588.343262 294.005096,586.405945 
	C291.487640,582.395386 287.845367,579.454834 284.608887,576.134827 
	C269.414398,560.548279 254.104370,545.073792 238.970596,529.428711 
	C224.777069,514.755676 210.764343,499.907867 196.635239,485.172241 
	C195.299759,483.779480 194.175095,481.903870 191.449829,482.032013 
	C194.347748,477.598114 197.882416,473.422882 202.613937,469.961487 
z"/>
<path fill="#EF5FFF" opacity="1.000000" stroke="none" 
	d="
M475.962616,370.198395 
	C478.872223,369.673553 480.144043,371.633545 481.622498,373.142151 
	C496.388062,388.208954 511.471161,402.984650 525.756165,418.494995 
	C534.769775,428.281769 544.709656,437.149475 553.455627,447.129089 
	C561.577576,456.396667 570.599548,464.731781 579.117554,473.581024 
	C580.359436,474.871124 581.400879,476.491211 583.682556,476.981812 
	C584.407776,477.723633 584.032776,478.179047 583.270569,478.786987 
	C583.028259,478.987213 582.715698,479.171448 582.535583,479.193207 
	C580.944153,479.745026 580.035767,481.093506 578.276917,481.660156 
	C577.120300,483.231964 575.660461,483.742035 573.833496,484.201233 
	C570.606323,485.677155 568.653442,484.078278 567.088013,482.003174 
	C563.552734,477.316895 559.222717,473.397522 555.079529,469.307465 
	C540.855591,455.266144 527.186401,440.675079 513.388367,426.234009 
	C503.272308,415.646484 492.543701,405.649414 482.592499,394.409515 
	C479.856171,391.077057 479.423431,387.186462 478.134308,383.288513 
	C478.236908,381.800934 478.010986,380.746155 477.133850,379.501251 
	C476.072144,376.327728 474.167053,373.621765 475.962616,370.198395 
z"/>
<path fill="#EA69FF" opacity="1.000000" stroke="none" 
	d="
M482.826294,394.263702 
	C492.883636,403.470337 503.051056,412.610413 511.768188,423.178558 
	C512.294983,423.817200 512.903015,424.389832 513.484131,424.982544 
	C530.327820,442.161987 547.106567,459.406158 564.086365,476.450073 
	C566.763000,479.136780 567.771729,483.867188 573.084229,484.138672 
	C567.750488,489.752014 560.422546,492.869354 553.406616,497.069611 
	C548.855896,496.469604 546.639160,493.038055 544.208618,490.262329 
	C536.539612,481.504272 528.155518,473.459656 520.008057,465.177216 
	C518.486816,463.630768 516.951111,462.069855 517.122681,459.286499 
	C518.312317,455.744965 521.517761,454.986420 523.920288,453.353638 
	C526.363220,451.693451 526.800720,450.411652 524.151978,448.610779 
	C511.059753,439.709198 500.451111,428.366425 492.086304,415.004639 
	C488.091125,408.622772 483.268250,402.504028 482.826294,394.263702 
z"/>
<path fill="#81B5FF" opacity="1.000000" stroke="none" 
	d="
M299.080078,509.746277 
	C297.088715,510.142883 295.878937,509.459625 294.800842,508.251648 
	C282.735199,494.731750 270.351410,481.501068 257.310089,468.924500 
	C250.487061,462.344727 245.142303,454.363831 237.587662,448.503998 
	C237.170654,448.180542 237.187576,447.297668 236.994965,446.308502 
	C241.731445,442.415192 246.745834,439.328705 252.385864,436.587189 
	C254.490875,436.857056 255.440735,438.313324 256.625763,439.439056 
	C269.737457,451.894775 281.712189,465.457977 294.436981,478.291290 
	C296.312134,480.182495 297.935028,482.284088 299.074158,485.179077 
	C300.455139,493.527618 301.592926,501.485016 299.080078,509.746277 
z"/>
<path fill="#DF76FF" opacity="1.000000" stroke="none" 
	d="
M517.629517,458.682861 
	C517.918396,460.418823 518.270386,461.760956 519.424316,462.944427 
	C529.859131,473.645996 540.249817,484.390564 550.676025,495.100555 
	C551.244385,495.684418 552.013916,496.072510 552.872437,496.841003 
	C546.692932,502.059631 539.608887,505.840332 532.362549,509.975433 
	C529.204407,510.254852 527.245728,508.673096 525.590271,506.754456 
	C517.092407,496.905487 507.634674,487.987305 498.542419,478.714996 
	C496.841156,476.980042 495.642883,475.056732 496.106934,472.122711 
	C502.261475,465.799591 509.416229,461.561066 517.629517,458.682861 
z"/>
<path fill="#63BEFF" opacity="1.000000" stroke="none" 
	d="
M339.439148,628.099731 
	C339.378235,625.471313 337.370941,624.081421 335.866180,622.316956 
	C326.254517,611.046082 315.168732,601.194641 305.047485,589.971191 
	C306.966858,585.672729 311.102966,584.549561 314.859253,582.377258 
	C315.925323,581.911133 316.687378,581.567810 317.479980,580.700195 
	C318.158173,580.035095 318.679565,579.681824 319.538208,579.269653 
	C320.845947,578.840820 321.825195,578.463074 322.918457,577.567444 
	C323.626892,577.209595 324.066498,577.080444 324.874329,576.954285 
	C327.380402,576.841492 329.054413,577.859497 330.475861,579.321777 
	C340.258118,589.385071 350.837738,598.677368 359.748810,609.583252 
	C360.896942,610.988342 362.264008,612.311584 361.228760,614.693542 
	C353.882629,619.250183 347.423645,624.589600 339.439148,628.099731 
z"/>
<path fill="#E56EFF" opacity="1.000000" stroke="none" 
	d="
M398.794861,346.619263 
	C405.653137,342.568451 411.558685,337.569763 419.094421,334.774506 
	C421.588837,334.256531 422.345856,336.079254 423.432220,337.213837 
	C429.418640,343.466156 435.730377,349.386810 441.369659,356.000336 
	C445.786560,361.180298 450.830109,365.849762 456.081238,370.757935 
	C456.359131,372.618011 455.359497,373.548950 454.227783,374.221710 
	C447.584198,378.170776 441.384552,382.931244 433.568054,385.421844 
	C431.036926,384.701324 429.600250,382.997620 428.250824,381.369171 
	C420.178558,371.627899 410.702942,363.251740 401.995575,354.131622 
	C400.092834,352.138672 397.729553,350.243164 398.794861,346.619263 
z"/>
<path fill="#AAA3FF" opacity="1.000000" stroke="none" 
	d="
M457.225708,555.750610 
	C450.898315,560.467407 444.455780,564.367065 437.494995,568.042480 
	C433.797150,567.798340 433.494720,564.345764 431.531982,562.572327 
	C421.846191,553.820801 413.842957,543.413086 404.320343,534.479858 
	C403.123077,533.356750 401.911652,532.193420 401.497833,530.121948 
	C407.423035,523.996704 414.274841,519.738708 422.453857,517.055420 
	C425.412048,517.707214 427.074158,519.656128 428.656342,521.505737 
	C436.935699,531.184570 446.238129,539.866333 455.129242,548.948669 
	C456.879944,550.737000 458.684601,552.563538 457.225708,555.750610 
z"/>
<path fill="#74BBFF" opacity="1.000000" stroke="none" 
	d="
M361.348999,614.951294 
	C360.682495,610.190796 356.681122,607.679138 353.952087,604.700806 
	C346.147430,596.183411 337.719910,588.237488 329.563446,580.040833 
	C328.354462,578.825928 327.076355,577.878540 324.901550,577.771973 
	C325.530884,573.477539 329.345062,572.805420 332.865906,571.229370 
	C334.557770,570.770142 335.642334,570.039612 336.607178,568.559143 
	C339.962341,566.081848 342.954498,563.584717 347.438171,563.517822 
	C351.830353,565.705322 354.722900,569.214355 357.586456,572.546875 
	C364.387421,580.461792 371.979553,587.582214 379.207611,595.066528 
	C380.905731,596.824829 382.849487,598.545349 382.220734,601.701904 
	C375.773743,607.149597 368.493164,610.654358 361.348999,614.951294 
z"/>
<path fill="#AAA3FF" opacity="1.000000" stroke="none" 
	d="
M289.738098,414.088013 
	C295.899261,408.823608 302.821320,405.288208 309.712524,401.148468 
	C312.167847,401.054871 313.444550,402.519562 314.615753,403.862213 
	C322.842163,413.292542 332.172577,421.637207 340.811981,430.658356 
	C342.989288,432.931915 345.309540,435.163513 345.689545,438.911682 
	C340.051361,445.009491 333.627167,449.433624 325.602417,451.901611 
	C319.120514,447.068024 313.836548,441.369598 308.677338,435.652771 
	C303.362030,429.762848 297.813080,424.126709 292.284912,418.455688 
	C291.145203,417.286499 289.808746,416.220947 289.738098,414.088013 
z"/>
<path fill="#B89AFF" opacity="1.000000" stroke="none" 
	d="
M457.347046,555.927856 
	C457.021576,554.235535 457.021912,552.509888 455.545532,551.013489 
	C444.747375,540.068970 434.011078,529.063416 422.926025,517.926270 
	C422.174469,516.420593 422.870300,515.423706 423.883423,514.818726 
	C430.267548,511.006531 436.063934,506.177277 443.537109,503.654602 
	C451.827606,513.611572 461.560852,521.788086 470.152771,531.055359 
	C473.352478,534.506531 477.266235,537.554810 478.245789,542.801208 
	C471.654999,547.982361 464.640686,551.854675 457.347046,555.927856 
z"/>
<path fill="#B89AFF" opacity="1.000000" stroke="none" 
	d="
M345.371704,439.404297 
	C344.768890,436.752380 343.242950,434.892395 341.688019,433.295227 
	C331.347931,422.674438 320.880249,412.177887 310.258118,401.386932 
	C316.386261,396.446899 322.975098,392.191864 330.468811,388.771912 
	C334.809052,390.308380 336.395203,394.314545 339.150543,397.118835 
	C348.359314,406.491241 358.511932,414.981140 366.444916,426.028320 
	C366.581543,426.714966 366.662506,427.168854 366.461060,427.336945 
	C360.204559,432.558197 353.784363,437.513092 345.371704,439.404297 
z"/>
<path fill="#90B2FF" opacity="1.000000" stroke="none" 
	d="
M298.570862,483.970886 
	C283.135803,468.415527 268.093567,452.802826 252.891724,436.833679 
	C257.831970,431.514313 264.447815,428.892700 270.652863,425.054382 
	C282.693115,435.575714 292.518097,447.959381 303.905884,458.823730 
	C305.400269,460.249451 306.266724,462.029175 305.646790,464.572754 
	C300.859344,468.477997 299.668091,473.271851 300.295135,478.847809 
	C300.491547,480.594727 300.452820,482.503296 298.570862,483.970886 
z"/>
<path fill="#9CAAFF" opacity="1.000000" stroke="none" 
	d="
M305.361633,464.332611 
	C305.361572,461.634125 303.687439,460.210999 302.164490,458.642548 
	C292.431549,448.618896 282.721832,438.572540 273.037323,428.502106 
	C272.254791,427.688324 271.718353,426.637848 271.034302,425.353546 
	C276.798004,420.879089 282.973175,417.368225 289.531494,413.835175 
	C291.281525,415.365112 292.627502,417.029266 294.095703,418.577576 
	C304.315216,429.355255 314.560089,440.108826 325.109863,451.047150 
	C324.606293,454.597351 321.405945,455.572876 319.016663,457.120850 
	C314.758636,459.879456 311.042419,463.733429 305.361633,464.332611 
z"/>
<path fill="#81B5FF" opacity="1.000000" stroke="none" 
	d="
M382.354614,601.969788 
	C381.724091,599.114380 379.835663,597.242371 377.901703,595.402405 
	C367.461060,585.469238 357.944458,574.653137 347.928680,563.843262 
	C347.249146,561.577148 348.721588,560.742676 349.932251,560.013672 
	C354.893433,557.026123 359.519226,553.441406 365.383759,551.393799 
	C367.440826,551.758850 368.806274,552.692322 369.885681,553.978821 
	C377.767487,563.373108 387.054352,571.398743 395.445496,580.293579 
	C397.998291,582.999573 401.053467,585.462646 401.282959,589.899841 
	C395.501343,594.961853 389.015045,598.314331 382.354614,601.969788 
z"/>
<path fill="#9CAAFF" opacity="1.000000" stroke="none" 
	d="
M401.706665,529.773315 
	C412.198334,540.700989 422.385895,551.407715 432.605377,562.083923 
	C434.213013,563.763428 435.974854,565.297668 436.859680,567.884644 
	C431.083588,572.144043 425.154053,576.407776 418.332642,579.882202 
	C416.106232,576.410278 413.414948,573.514526 410.560669,570.701721 
	C402.141937,562.405396 393.716522,554.110901 385.979340,545.156006 
	C385.001465,544.024231 383.855408,543.021667 383.497986,541.110352 
	C388.416351,535.323730 394.569122,531.880310 401.706665,529.773315 
z"/>
<path fill="#C392FF" opacity="1.000000" stroke="none" 
	d="
M366.690491,426.391907 
	C361.628082,422.787842 358.524445,417.801819 354.417664,413.757874 
	C346.419006,405.881622 337.890564,398.476257 330.994049,389.053589 
	C335.959900,384.072632 341.964203,380.807495 348.494812,377.749512 
	C361.108093,389.591064 372.906677,401.913025 384.427734,414.966553 
	C384.588135,415.813873 384.666565,416.474670 384.328918,416.741180 
	C379.059540,420.900116 373.746185,425.000580 366.690491,426.391907 
z"/>
<path fill="#C392FF" opacity="1.000000" stroke="none" 
	d="
M478.376465,543.013550 
	C476.427612,538.796143 473.014435,535.803467 470.010986,532.637207 
	C462.824646,525.061401 455.315369,517.791199 447.907501,510.426758 
	C446.245392,508.774353 444.654816,507.112457 444.042511,504.397705 
	C443.553009,502.825928 444.422760,502.188202 445.221649,501.706146 
	C450.090607,498.768280 454.646820,495.277466 460.402283,493.247589 
	C462.944000,493.714233 463.838562,495.696289 465.254059,497.047882 
	C475.005859,506.359680 484.054169,516.352051 493.308350,526.144409 
	C494.745483,527.665100 496.775513,528.908936 496.242065,531.787476 
	C490.743134,536.471924 484.481354,539.305481 478.376465,543.013550 
z"/>
<path fill="#90B2FF" opacity="1.000000" stroke="none" 
	d="
M383.717896,540.798645 
	C393.612091,552.469666 404.336945,562.828369 414.871979,573.368164 
	C416.508484,575.005432 418.435760,576.473694 417.997681,579.593506 
	C412.960480,583.919434 407.496429,587.180420 401.443817,590.133789 
	C400.537415,587.093872 398.216644,585.007019 396.275940,582.907959 
	C387.084778,572.966553 376.688751,564.182678 368.066650,553.679993 
	C367.668732,553.195312 366.972015,552.955872 366.212494,552.341187 
	C365.798157,551.605896 365.692566,551.005737 366.093872,550.712463 
	C371.527283,546.742065 376.712585,542.336731 383.717896,540.798645 
z"/>
<path fill="#D581FF" opacity="1.000000" stroke="none" 
	d="
M496.598267,471.625458 
	C496.842194,474.034485 497.329651,475.912689 499.055908,477.626129 
	C508.356323,486.857361 517.826233,495.930084 526.383118,505.881897 
	C527.808044,507.539124 529.446411,508.891083 531.808960,509.763367 
	C526.760925,514.478577 520.461365,517.259155 514.368652,520.984985 
	C511.794678,521.052612 510.431732,519.522217 508.992676,518.158264 
	C499.229156,508.904266 490.782288,498.382050 481.030609,489.112701 
	C479.453308,487.613434 478.276520,485.777222 478.244171,483.092041 
	C483.288574,477.379700 489.386780,473.789825 496.598267,471.625458 
z"/>
<path fill="#CC8AFF" opacity="1.000000" stroke="none" 
	d="
M384.672302,415.322571 
	C378.906433,411.023804 374.624695,405.790436 370.091553,400.747101 
	C364.445496,394.465698 358.195709,388.728455 352.244110,382.719086 
	C350.984528,381.447235 349.352448,380.418671 348.926636,378.073425 
	C354.087616,373.768005 359.417999,369.991943 365.609772,366.940063 
	C373.443481,376.034393 382.338898,383.819489 390.486053,392.326080 
	C394.154144,396.156006 397.760223,400.050171 400.710754,404.896301 
	C400.202393,408.980774 396.754761,409.668488 394.277344,411.307800 
	C391.436401,413.187653 388.490845,414.950592 384.672302,415.322571 
z"/>
<path fill="#CC8AFF" opacity="1.000000" stroke="none" 
	d="
M478.620331,482.648499 
	C479.488129,484.207672 479.658478,485.971497 480.628998,486.888092 
	C492.057434,497.681824 501.492584,510.432007 513.838501,520.777710 
	C508.817535,525.575439 502.408112,528.179504 496.368835,531.998657 
	C496.030457,529.981689 494.384094,528.940918 493.147003,527.658875 
	C483.409882,517.567505 473.650574,507.497437 463.922363,497.397491 
	C463.013824,496.454224 462.272614,495.349762 461.169708,494.138977 
	C460.781128,493.463562 460.700714,492.828400 461.068207,492.553955 
	C466.431549,488.547974 471.691101,484.351624 478.620331,482.648499 
z"/>
<path fill="#DF76FF" opacity="1.000000" stroke="none" 
	d="
M398.703735,346.405212 
	C398.926575,349.500427 400.959473,351.466400 402.967499,353.476013 
	C413.133179,363.649780 423.524231,373.608429 432.943726,384.946533 
	C433.049103,387.707489 431.002289,388.506500 429.407623,389.480408 
	C425.400238,391.927765 421.725372,395.092194 416.468445,395.673676 
	C405.896973,384.468781 394.361450,374.634521 384.744141,362.955841 
	C383.397430,361.320496 381.531738,359.889069 382.695953,357.008118 
	C388.038910,353.280609 393.210358,349.875275 398.703735,346.405212 
z"/>
<path fill="#D581FF" opacity="1.000000" stroke="none" 
	d="
M382.513367,356.766174 
	C383.492706,361.916870 387.770721,364.771393 390.872986,368.172607 
	C397.569305,375.514282 404.817688,382.354309 411.883820,389.355530 
	C413.550140,391.006500 415.063568,392.725739 416.131500,395.255280 
	C416.622864,396.993378 415.775482,397.869598 414.793518,398.451935 
	C410.296844,401.118622 405.992218,404.171997 400.526428,405.530762 
	C391.421844,393.883575 380.556824,384.350006 370.519440,374.035400 
	C368.666962,372.131744 366.641266,370.378113 366.004639,367.248291 
	C370.881958,362.765320 376.484802,359.748077 382.513367,356.766174 
z"/>
<path fill="#EF5FFF" opacity="1.000000" stroke="none" 
	d="
M456.585022,371.176331 
	C455.009644,371.021271 453.998810,370.527161 453.154297,369.643646 
	C442.151428,358.132202 431.143738,346.625427 419.793213,334.964050 
	C420.391022,333.934570 421.332916,333.058502 422.563354,332.048462 
	C425.066467,330.524139 427.184387,328.981995 429.744476,327.525452 
	C430.734772,326.892548 431.450378,326.437195 432.480530,325.926208 
	C433.400879,325.540405 433.914062,325.081146 434.735474,324.463593 
	C435.409088,324.089813 435.810944,323.925171 436.522675,323.657990 
	C437.092834,329.262421 442.179626,331.837463 445.272095,335.375183 
	C452.916779,344.120605 461.555573,351.998047 469.826965,360.191895 
	C470.265350,360.626190 470.999847,360.761536 471.958923,361.104126 
	C472.211151,363.381470 470.428925,364.261841 468.883514,365.111206 
	C464.962616,367.266144 461.246063,369.836914 456.585022,371.176331 
z"/>
<path fill="#EA69FF" opacity="1.000000" stroke="none" 
	d="
M458.670532,263.185760 
	C463.199554,268.976440 466.217133,275.891296 469.883820,282.788818 
	C464.482788,277.534210 461.654785,270.447083 458.670532,263.185760 
z"/>
<path fill="#EA69FF" opacity="1.000000" stroke="none" 
	d="
M453.697205,232.773911 
	C454.153717,237.847107 453.756348,242.645767 454.460083,247.657837 
	C451.232666,243.487045 452.517792,238.491623 452.667603,233.330475 
	C453.077240,232.818329 453.267731,232.643143 453.697205,232.773911 
z"/>
<path fill="#74BBFF" opacity="1.000000" stroke="none" 
	d="
M303.232666,646.359985 
	C307.239929,643.008240 312.416504,641.760864 317.819580,640.146362 
	C313.978088,643.778931 308.475677,644.441223 303.232666,646.359985 
z"/>
<path fill="#74BBFF" opacity="1.000000" stroke="none" 
	d="
M147.371094,576.266663 
	C151.157608,578.908203 152.739716,583.323364 154.928162,587.700195 
	C151.206009,585.035034 149.619568,580.592102 147.371094,576.266663 
z"/>
<path fill="#74BBFF" opacity="1.000000" stroke="none" 
	d="
M155.304901,589.288147 
	C159.233459,591.845947 160.724243,596.360718 162.883514,600.785278 
	C159.271729,598.015259 157.555176,593.648438 155.304901,589.288147 
z"/>
<path fill="#74BBFF" opacity="1.000000" stroke="none" 
	d="
M258.284973,657.453125 
	C261.568878,654.202209 266.244598,655.042480 270.902130,654.200928 
	C267.465790,656.744080 262.952820,656.728394 258.284973,657.453125 
z"/>
<path fill="#74BBFF" opacity="1.000000" stroke="none" 
	d="
M211.360138,664.100952 
	C214.409576,662.292847 217.877701,663.153564 221.615234,663.552490 
	C218.582306,665.489136 215.109589,664.764404 211.360138,664.100952 
z"/>
<path fill="#74BBFF" opacity="1.000000" stroke="none" 
	d="
M139.549332,561.242310 
	C141.904861,563.275940 142.870667,566.309570 143.932343,569.667542 
	C141.236816,567.862671 140.404892,564.692017 139.549332,561.242310 
z"/>
<path fill="#EA69FF" opacity="1.000000" stroke="none" 
	d="
M478.889526,298.626648 
	C477.395355,299.601257 475.891327,300.229431 474.022583,300.798706 
	C474.416931,298.654419 478.583313,298.023346 476.296570,294.271851 
	C478.587402,294.546326 478.128754,296.767334 478.889526,298.626648 
z"/>
<path fill="#74BBFF" opacity="1.000000" stroke="none" 
	d="
M233.285309,662.208252 
	C234.759567,660.013428 236.956253,659.723328 239.644516,660.506775 
	C238.000793,662.108032 235.824768,662.455322 233.285309,662.208252 
z"/>
<path fill="#EA69FF" opacity="1.000000" stroke="none" 
	d="
M465.960052,306.699799 
	C463.794556,307.957306 461.655365,308.931976 459.146240,309.880951 
	C460.425201,307.535614 462.887787,306.384003 465.716064,305.274109 
	C466.036591,305.663696 466.011475,306.040344 465.960052,306.699799 
z"/>
<path fill="#DF76FF" opacity="1.000000" stroke="none" 
	d="
M429.678711,327.326477 
	C428.560455,329.839355 426.229462,331.103760 423.217163,331.919006 
	C424.378693,329.483917 426.855896,328.390839 429.678711,327.326477 
z"/>
<path fill="#74BBFF" opacity="1.000000" stroke="none" 
	d="
M249.284271,659.214844 
	C250.476135,657.417053 252.223190,656.694763 254.644226,657.481750 
	C253.408066,659.200806 251.565750,659.578735 249.284271,659.214844 
z"/>
<path fill="#74BBFF" opacity="1.000000" stroke="none" 
	d="
M296.272705,648.194458 
	C297.185272,646.690918 298.541412,645.847046 300.635254,646.422974 
	C299.772705,648.071594 298.357819,648.746033 296.272705,648.194458 
z"/>
<path fill="#74BBFF" opacity="1.000000" stroke="none" 
	d="
M273.252106,654.302368 
	C274.145203,652.659851 275.528717,651.808899 277.692200,652.553467 
	C276.694733,653.987488 275.306580,654.780151 273.252106,654.302368 
z"/>
<path fill="#74BBFF" opacity="1.000000" stroke="none" 
	d="
M183.309982,635.271973 
	C185.363892,635.853027 186.234406,637.637756 186.776703,639.977783 
	C184.790161,639.325012 183.954086,637.527161 183.309982,635.271973 
z"/>
<path fill="#74BBFF" opacity="1.000000" stroke="none" 
	d="
M178.418839,627.234375 
	C180.772903,627.587830 181.333832,629.552612 181.830017,631.890930 
	C180.009216,631.152954 179.119171,629.409485 178.418839,627.234375 
z"/>
<path fill="#74BBFF" opacity="1.000000" stroke="none" 
	d="
M169.294342,612.273132 
	C171.354919,612.861145 172.248764,614.632690 172.762878,616.993958 
	C170.797485,616.314636 170.007599,614.477966 169.294342,612.273132 
z"/>
<path fill="#74BBFF" opacity="1.000000" stroke="none" 
	d="
M180.553497,492.950928 
	C180.886215,493.010376 180.924332,493.208496 180.994232,493.707764 
	C180.268005,495.306580 179.314728,496.396149 177.569641,497.012268 
	C177.305969,495.013763 178.926758,494.160553 180.553497,492.950928 
z"/>
<path fill="#DF76FF" opacity="1.000000" stroke="none" 
	d="
M583.396362,478.950989 
	C583.286560,478.500275 583.544800,478.013336 583.915955,477.273163 
	C585.339294,476.581940 586.682312,475.041382 587.991821,477.440613 
	C586.632080,478.135712 585.198242,478.525269 583.396362,478.950989 
z"/>
<path fill="#74BBFF" opacity="1.000000" stroke="none" 
	d="
M224.286896,663.649963 
	C224.901474,661.260620 226.882843,662.201965 228.935318,662.196716 
	C228.161880,664.025391 226.368896,663.771606 224.286896,663.649963 
z"/>
<path fill="#EA69FF" opacity="1.000000" stroke="none" 
	d="
M455.777222,255.245575 
	C457.494812,256.172943 457.972321,257.766571 457.753693,259.984192 
	C456.129181,259.087097 455.687653,257.355042 455.777222,255.245575 
z"/>
<path fill="#74BBFF" opacity="1.000000" stroke="none" 
	d="
M285.238342,651.172485 
	C285.742950,649.518127 286.777618,648.712158 288.706207,649.548706 
	C288.035553,650.894470 286.929535,651.533508 285.238342,651.172485 
z"/>
<path fill="#74BBFF" opacity="1.000000" stroke="none" 
	d="
M140.527588,545.988220 
	C140.958771,547.192261 141.374252,548.615234 139.897552,549.937500 
	C139.091858,548.669373 139.042084,547.317810 140.527588,545.988220 
z"/>
<path fill="#74BBFF" opacity="1.000000" stroke="none" 
	d="
M144.322601,571.260376 
	C146.159439,571.330139 146.381149,572.955750 146.968597,574.642212 
	C145.194016,574.555298 144.910553,572.941833 144.322601,571.260376 
z"/>
<path fill="#DF76FF" opacity="1.000000" stroke="none" 
	d="
M578.325684,481.772217 
	C578.922607,480.505341 579.857300,479.220428 582.003052,479.167236 
	C581.540039,480.661621 580.557190,481.866211 578.325684,481.772217 
z"/>
<path fill="#EA69FF" opacity="1.000000" stroke="none" 
	d="
M470.206055,284.284973 
	C472.142303,284.283508 472.426544,285.932526 472.917114,287.752350 
	C471.163391,287.588562 470.884369,285.953094 470.206055,284.284973 
z"/>
<path fill="#EA69FF" opacity="1.000000" stroke="none" 
	d="
M453.504150,225.953506 
	C453.861969,226.942871 453.930878,228.044189 453.973816,229.561432 
	C453.772125,230.127136 453.596344,230.276917 453.143982,230.218155 
	C451.942108,228.603088 452.073700,227.289749 453.504150,225.953506 
z"/>
<path fill="#74BBFF" opacity="1.000000" stroke="none" 
	d="
M166.591217,509.982971 
	C167.006836,511.392609 166.287125,512.360229 164.642548,513.001709 
	C164.136032,511.519592 165.211990,510.796936 166.591217,509.982971 
z"/>
<path fill="#74BBFF" opacity="1.000000" stroke="none" 
	d="
M328.225708,635.499878 
	C328.321442,634.066833 329.122528,633.181946 330.953278,633.149170 
	C330.720398,634.391846 329.910828,635.315063 328.225708,635.499878 
z"/>
<path fill="#74BBFF" opacity="1.000000" stroke="none" 
	d="
M333.209442,632.421021 
	C333.352600,631.036011 334.138245,630.165283 335.910461,630.117798 
	C335.649414,631.314148 334.952942,632.350342 333.209442,632.421021 
z"/>
<path fill="#74BBFF" opacity="1.000000" stroke="none" 
	d="
M198.029785,657.374268 
	C199.390366,657.000916 200.324051,657.718323 201.012207,659.244629 
	C199.533005,659.837097 198.749359,658.870789 198.029785,657.374268 
z"/>
<path fill="#74BBFF" opacity="1.000000" stroke="none" 
	d="
M158.581772,519.975464 
	C159.036331,521.381104 158.311295,522.339783 156.692230,523.007935 
	C156.140747,521.528564 157.195709,520.791077 158.581772,519.975464 
z"/>
<path fill="#74BBFF" opacity="1.000000" stroke="none" 
	d="
M173.532837,619.189453 
	C174.910721,619.350830 175.812881,620.149292 175.799637,621.974731 
	C174.619888,621.659668 173.586670,620.946167 173.532837,619.189453 
z"/>
<path fill="#74BBFF" opacity="1.000000" stroke="none" 
	d="
M139.009598,553.250977 
	C140.097565,553.770203 140.079865,554.619263 139.477875,555.723145 
	C138.322144,555.238586 138.279694,554.385498 139.009598,553.250977 
z"/>
<path fill="#74BBFF" opacity="1.000000" stroke="none" 
	d="
M291.222626,649.552002 
	C291.369720,648.122437 292.409576,647.953552 293.936218,648.162476 
	C293.699860,649.365845 292.774536,649.813782 291.222626,649.552002 
z"/>
<path fill="#74BBFF" opacity="1.000000" stroke="none" 
	d="
M243.204010,660.464600 
	C243.439758,659.051331 244.490799,658.945007 245.993591,659.200806 
	C245.701935,660.404053 244.747208,660.809387 243.204010,660.464600 
z"/>
<path fill="#FF2CFF" opacity="1.000000" stroke="none" 
	d="
M452.832703,230.381943 
	C453.047638,230.004456 453.227875,229.999298 453.677979,229.985748 
	C454.280151,230.447449 454.612457,230.917557 454.965332,231.689957 
	C454.716278,232.200394 454.446625,232.408524 454.056580,232.848267 
	C453.761749,233.060120 453.587311,233.040344 453.149780,233.007034 
	C452.857147,232.247086 452.827576,231.500671 452.832703,230.381943 
z"/>
<path fill="#EA69FF" opacity="1.000000" stroke="none" 
	d="
M455.369385,214.834747 
	C455.557556,215.354370 455.519073,215.992310 455.194916,216.808472 
	C453.874786,216.181168 454.624451,215.580399 455.369385,214.834747 
z"/>
<path fill="#74BBFF" opacity="1.000000" stroke="none" 
	d="
M196.151932,655.286865 
	C197.035629,655.065735 197.725601,655.420593 197.927429,656.722778 
	C197.353485,656.553284 196.766174,656.069031 196.151932,655.286865 
z"/>
<path fill="#EA69FF" opacity="1.000000" stroke="none" 
	d="
M470.728638,302.200500 
	C470.891998,303.160980 470.463684,303.831604 469.073669,303.848938 
	C469.305298,303.269928 469.865906,302.730652 470.728638,302.200500 
z"/>
<path fill="#EA69FF" opacity="1.000000" stroke="none" 
	d="
M473.234070,289.237091 
	C474.200439,289.093597 474.847015,289.549225 474.830322,290.925964 
	C474.255066,290.679321 473.736725,290.108185 473.234070,289.237091 
z"/>
<path fill="#E56EFF" opacity="1.000000" stroke="none" 
	d="
M452.977722,314.694489 
	C452.467133,314.973206 451.973236,314.958618 451.110901,314.885162 
	C451.307037,314.292480 451.871552,313.758698 452.737396,313.227600 
	C453.023926,313.620605 453.009186,314.010895 452.977722,314.694489 
z"/>
<path fill="#74BBFF" opacity="1.000000" stroke="none" 
	d="
M206.809341,662.577942 
	C207.491257,662.041687 208.263489,662.071777 208.977676,663.130371 
	C208.226730,663.829163 207.567886,663.452759 206.809341,662.577942 
z"/>
<path fill="#EA69FF" opacity="1.000000" stroke="none" 
	d="
M456.662628,210.994965 
	C456.786896,211.520813 456.658569,212.095612 456.263916,212.824921 
	C455.088501,212.111237 455.581268,211.541779 456.662628,210.994965 
z"/>
<path fill="#74BBFF" opacity="1.000000" stroke="none" 
	d="
M280.172668,652.458496 
	C280.231598,651.490356 280.839996,651.072754 282.065186,651.242371 
	C281.932648,652.061035 281.376373,652.603577 280.172668,652.458496 
z"/>
<path fill="#74BBFF" opacity="1.000000" stroke="none" 
	d="
M188.165375,643.280701 
	C189.145935,643.118896 189.826126,643.557373 189.783661,644.988770 
	C189.201416,644.741699 188.682327,644.162048 188.165375,643.280701 
z"/>
<path fill="#E56EFF" opacity="1.000000" stroke="none" 
	d="
M447.735962,316.298035 
	C447.880341,317.200775 447.450439,317.809509 446.187988,317.895905 
	C446.127228,317.076935 446.597107,316.492554 447.735962,316.298035 
z"/>
<path fill="#74BBFF" opacity="1.000000" stroke="none" 
	d="
M166.235504,607.254028 
	C167.193436,607.113525 167.835419,607.566956 167.826538,608.933716 
	C167.257248,608.688965 166.738708,608.120667 166.235504,607.254028 
z"/>
<path fill="#74BBFF" opacity="1.000000" stroke="none" 
	d="
M163.200897,602.267822 
	C164.160019,602.112183 164.825226,602.554688 164.810699,603.955261 
	C164.238434,603.711487 163.721619,603.138611 163.200897,602.267822 
z"/>
<path fill="#E56EFF" opacity="1.000000" stroke="none" 
	d="
M444.696533,318.158997 
	C444.885071,319.125610 444.478424,319.845093 443.001038,319.846802 
	C443.234772,319.270477 443.814789,318.729370 444.696533,318.158997 
z"/>
<path fill="#DF76FF" opacity="1.000000" stroke="none" 
	d="
M434.709045,324.245178 
	C434.875549,325.175140 434.470551,325.836548 433.117981,325.887939 
	C433.333649,325.325745 433.872253,324.780853 434.709045,324.245178 
z"/>
<path fill="#74BBFF" opacity="1.000000" stroke="none" 
	d="
M143.622391,540.005432 
	C144.010223,540.717041 143.806992,541.401062 142.848114,541.992126 
	C142.249680,541.215637 142.590240,540.583252 143.622391,540.005432 
z"/>
<path fill="#74BBFF" opacity="1.000000" stroke="none" 
	d="
M148.654984,533.045959 
	C148.992981,533.820557 148.751053,534.527710 147.628494,534.996521 
	C147.182816,534.156494 147.638367,533.571167 148.654984,533.045959 
z"/>
<path fill="#EA69FF" opacity="1.000000" stroke="none" 
	d="
M454.590210,250.044312 
	C455.023499,249.805038 455.291687,249.864456 455.759033,249.982605 
	C455.927032,250.550919 455.890747,251.083527 455.733093,252.000519 
	C454.885132,251.886993 454.332214,251.289719 454.590210,250.044312 
z"/>
<path fill="#74BBFF" opacity="1.000000" stroke="none" 
	d="
M170.600998,504.977295 
	C170.972397,505.800903 170.757599,506.560791 169.479980,506.970581 
	C169.131134,506.127441 169.589462,505.522491 170.600998,504.977295 
z"/>
<path fill="#F9FDFF" opacity="1.000000" stroke="none" 
	d="
M247.460785,880.468872 
	C236.564987,891.604248 224.077316,899.497925 209.419144,903.850403 
	C203.470337,905.616821 198.045898,903.215149 195.970261,897.828430 
	C193.932678,892.540466 196.493149,886.820435 202.169937,884.340149 
	C206.424362,882.481201 210.961594,881.188904 215.037140,879.014832 
	C233.854004,868.977234 245.059448,853.814880 246.049011,831.945557 
	C246.361664,825.036072 250.819794,820.288818 256.616272,820.417480 
	C262.751770,820.553711 266.872955,825.503662 266.802704,832.803162 
	C266.626648,851.092468 259.684998,866.666748 247.460785,880.468872 
z"/>
<path fill="#FFFEFF" opacity="1.000000" stroke="none" 
	d="
M456.028320,371.384216 
	C461.441193,367.968689 466.655823,364.837494 472.095886,361.439240 
	C473.123016,361.298706 473.924713,361.425201 474.951843,361.776825 
	C475.964111,362.974274 475.998993,364.133087 476.001282,365.648621 
	C476.030670,367.067566 476.054260,368.139252 476.183411,369.600525 
	C475.612488,373.325775 477.657410,376.136017 478.229523,379.624512 
	C478.606323,380.399475 478.804077,380.822876 479.059143,381.599731 
	C479.524536,385.995300 481.200317,389.636963 482.914612,393.653717 
	C486.674530,405.991730 493.801605,415.986176 501.327637,425.714569 
	C508.197296,434.594482 516.516174,441.995972 525.852905,448.169220 
	C529.646484,450.677460 528.714905,452.043182 525.468506,453.813812 
	C522.996399,455.162109 520.679504,456.794922 518.123047,458.586700 
	C510.674347,462.344116 504.116669,467.017914 497.113159,471.529327 
	C490.574768,474.488922 485.149017,478.736389 479.125427,482.558594 
	C472.631256,485.650269 467.096527,489.773163 461.068237,493.665802 
	C455.035645,496.519257 449.923920,500.355225 444.210236,503.774353 
	C436.754364,508.062500 429.561310,512.174866 422.755371,517.470093 
	C415.169922,520.475708 409.110321,525.546570 402.186157,529.722473 
	C395.713989,532.804199 390.117554,536.766479 384.186859,540.755859 
	C377.668213,543.753357 372.218811,547.963989 366.189453,551.789185 
	C359.669647,555.111694 353.767517,558.868103 347.925293,563.223877 
	C344.394836,565.358337 340.998016,567.213074 337.319763,569.305542 
	C335.976685,569.988892 335.194946,570.815674 334.028534,571.680176 
	C330.569458,573.229248 327.595520,574.932251 324.714264,577.406799 
	C324.170502,577.777283 323.828339,577.865662 323.248962,578.078369 
	C322.291321,578.767273 321.459534,579.140076 320.422302,579.811279 
	C319.625214,580.314819 319.065369,580.574951 318.255005,581.018188 
	C317.454712,581.618469 316.916840,582.050964 316.061249,582.626709 
	C312.273743,584.895142 308.794067,587.007629 305.123108,589.378174 
	C303.218201,589.165894 301.583252,592.954529 299.681396,589.371155 
	C299.597321,582.317017 299.650604,575.622375 299.604218,568.468994 
	C300.524963,559.297913 298.850372,550.623413 299.080719,541.460083 
	C299.040894,536.965576 299.059662,532.932373 299.028870,528.436401 
	C299.014160,526.535767 299.036377,525.097839 298.941467,523.353088 
	C298.916687,519.005310 298.917908,514.964661 298.817993,510.469788 
	C299.475250,501.628387 298.679749,493.272247 298.196136,484.468872 
	C299.586334,481.540009 299.038330,478.785675 298.749176,476.268158 
	C298.134827,470.919250 299.529205,466.933441 304.870850,464.428253 
	C312.317810,461.033417 318.391571,455.998016 325.193359,451.494659 
	C332.748047,448.911438 338.235138,443.521301 344.866699,439.458008 
	C352.791748,436.309296 359.228271,431.230316 366.210632,426.501831 
	C372.780182,423.617188 378.416138,419.723572 384.177734,415.478516 
	C389.768066,412.517303 395.226929,409.897583 400.050995,405.700989 
	C405.471222,402.382172 411.093872,399.905457 416.110657,395.868927 
	C422.048737,392.839355 427.505859,389.528717 432.898804,385.544586 
	C440.842773,381.045227 448.557373,376.726532 456.028320,371.384216 
z"/>
<path fill="#EF5FFF" opacity="1.000000" stroke="none" 
	d="
M476.269592,365.780945 
	C474.936951,365.119904 475.111359,363.884216 475.117859,362.358093 
	C477.457764,362.494720 477.202789,363.951355 476.269592,365.780945 
z"/>
<path fill="#90B2FF" opacity="1.000000" stroke="none" 
	d="
M298.659485,523.276978 
	C300.261688,524.385742 299.832825,525.941772 299.218140,527.732483 
	C297.511078,526.649719 297.895691,525.086792 298.659485,523.276978 
z"/>
<path fill="#EA69FF" opacity="1.000000" stroke="none" 
	d="
M479.343597,381.780518 
	C478.844788,381.479126 478.544952,381.018219 478.312744,380.273254 
	C479.254700,380.186279 480.077026,380.420410 479.343597,381.780518 
z"/>
<path fill="#90B2FF" opacity="1.000000" stroke="none" 
	d="
M320.507782,580.036560 
	C320.481171,578.909363 321.373230,578.472473 322.704773,578.197876 
	C322.900208,579.547302 322.017761,579.965942 320.507782,580.036560 
z"/>
<path fill="#90B2FF" opacity="1.000000" stroke="none" 
	d="
M316.079407,582.818237 
	C316.306396,582.260437 316.859375,581.738342 317.708435,581.208679 
	C317.882050,582.149353 317.465393,582.812805 316.079407,582.818237 
z"/>
<path fill="#90B2FF" opacity="1.000000" stroke="none" 
	d="
M334.062286,571.861023 
	C334.316223,570.674377 334.957184,569.575195 336.730896,569.465820 
	C336.696838,570.930908 335.901794,571.809326 334.062286,571.861023 
z"/>
</svg>